<svg width="80" height="80" viewBox="0 0 104 104" fill="none"
  xmlns="http://www.w3.org/2000/svg">
  <path d="M104 52C104 80.7188 80.7188 104 52 104C23.2812 104 0 80.7188 0 52C0 23.2812 23.2812 0 52 0C80.7188 0 104 23.2812 104 52Z" fill="white"/>
  <path d="M25.8238 67.324C34.0109 81.5045 52.1434 86.3631 66.3239 78.176C80.5044 69.9889 85.363 51.8563 77.1759 37.6759C68.9888 23.4954 50.8563 18.6368 36.6758 26.8239" stroke="url(#paint0_linear)" stroke-width="3" stroke-linecap="round" stroke-linejoin="round"/>
  <!-- <animateTransform attributeName="transform" type="rotate" dur="1s" repeatCount="indefinite" keyTimes="0;1" values="0 51 51;360 51 55"></animateTransform></path> -->
  <path d="M51.5 23C35.2076 23 22 36.2076 22 52.5C22 68.7924 35.2076 82 51.5 82C67.7924 82 81 68.7924 81 52.5" stroke="url(#paint1_linear)" stroke-opacity="0.04" stroke-width="4" stroke-linecap="round" stroke-linejoin="round"/>
  <defs>
    <linearGradient id="paint0_linear" x1="40.6479" y1="93" x2="13.0136" y2="40.4853" gradientUnits="userSpaceOnUse">
      <stop stop-color="#EC268F"/>
      <stop offset="1" stop-color="#EC268F" stop-opacity="0"/>
    </linearGradient>
    <linearGradient id="paint1_linear" x1="22" y1="23" x2="81" y2="25.3137" gradientUnits="userSpaceOnUse">
      <stop stop-color="#EC268F"/>
      <stop offset="1" stop-color="#EC268F" stop-opacity="0"/>
    </linearGradient>
  </defs>
</svg>
